<svg height="71" viewBox="-10 0 115 164" fill="#0000ee" version="1.1" xmlns="http://www.w3.org/2000/svg" xmlns:xlink="http://www.w3.org/1999/xlink" xml:space="preserve">
  <defs>
    <filter id="horizontal-blur">
      <feGaussianBlur in="SourceGraphic" stdDeviation="5 0" />
    </filter>
  </defs>
  <g transform="matrix(1,0,0,1,-1018.94,-409.203)" filter="url(#horizontal-blur)">
    <g transform="matrix(0.369564,-0.241836,0.241836,0.369564,803.148,528.617)">
      <g transform="matrix(1.89459,1.23979,-1.23979,1.89459,-866.268,-1997.25)">
        <path d="M1078.17,566.164C1086.72,560.566 1092.58,551.974 1094.67,541.972L1097.32,529.327C1098.45,523.912 1094.97,518.603 1089.56,517.472C1084.14,516.341 1078.83,519.815 1077.7,525.23C1077.7,525.23 1075.06,537.874 1075.06,537.874C1074.07,542.641 1071.27,546.733 1067.2,549.4C1063.12,552.066 1058.25,552.985 1053.49,551.989C1043.64,549.933 1037.31,540.256 1039.37,530.415C1039.37,530.415 1045.54,500.879 1045.54,500.879C1047.6,491.038 1057.27,484.706 1067.11,486.762C1072.53,487.893 1077.84,484.419 1078.97,479.004C1080.1,473.59 1076.62,468.281 1071.21,467.15C1071.21,467.15 1071.21,467.15 1071.21,467.15C1050.56,462.837 1030.24,476.129 1025.93,496.782L1019.76,526.318C1015.44,546.974 1028.73,567.286 1049.39,571.601C1059.39,573.691 1069.62,571.76 1078.17,566.164L1078.17,566.164ZM1090.1,509.031C1098.66,503.433 1104.52,494.841 1106.61,484.835L1112.78,455.298C1117.1,434.643 1103.8,414.33 1083.15,410.015C1083.15,410.015 1083.15,410.015 1083.15,410.015C1062.49,405.703 1042.18,418.992 1037.87,439.648L1035.22,452.291C1034.09,457.706 1037.56,463.015 1042.98,464.146C1048.39,465.277 1053.7,461.803 1054.83,456.388C1054.83,456.388 1057.47,443.744 1057.47,443.744C1059.53,433.903 1069.21,427.571 1079.05,429.627C1088.89,431.683 1095.22,441.359 1093.16,451.2L1086.99,480.737C1086,485.506 1083.21,489.598 1079.13,492.264C1075.06,494.931 1070.19,495.852 1065.42,494.856C1060.01,493.725 1054.7,497.199 1053.57,502.614C1052.44,508.028 1055.91,513.337 1061.33,514.468C1071.33,516.558 1081.55,514.627 1090.1,509.031L1090.1,509.031Z" />
      </g>
    </g>
  </g>
</svg>